<svg width="91" height="91" viewBox="0 0 91 91" fill="none" xmlns="http://www.w3.org/2000/svg">
<mask id="path-1-inside-1_16_326" fill="white">
<path fill-rule="evenodd" clip-rule="evenodd" d="M41.3464 0.556152H50.201V36.2061L75.7313 10.6758L81.9925 16.9369L57.5738 41.3556H91.0004V50.2102H55.8325L79.5728 76.1461L73.0412 82.1247L50.201 57.1721V90.9999H41.3464V57.5831L18.0391 80.8903L11.778 74.6291L36.1969 50.2102H0.556641V41.3556H35.7234L11.9741 15.4098L18.5057 9.43124L41.3464 34.3844V0.556152Z"/>
</mask>
<path fill-rule="evenodd" clip-rule="evenodd" d="M41.3464 0.556152H50.201V36.2061L75.7313 10.6758L81.9925 16.9369L57.5738 41.3556H91.0004V50.2102H55.8325L79.5728 76.1461L73.0412 82.1247L50.201 57.1721V90.9999H41.3464V57.5831L18.0391 80.8903L11.778 74.6291L36.1969 50.2102H0.556641V41.3556H35.7234L11.9741 15.4098L18.5057 9.43124L41.3464 34.3844V0.556152Z" fill="#FFC803"/>
<path d="M50.201 0.556152H51.201V-0.443848H50.201V0.556152ZM41.3464 0.556152V-0.443848H40.3464V0.556152H41.3464ZM50.201 36.2061H49.201V38.6203L50.9081 36.9132L50.201 36.2061ZM75.7313 10.6758L76.4385 9.96865L75.7313 9.26154L75.0242 9.96865L75.7313 10.6758ZM81.9925 16.9369L82.6996 17.644L83.4067 16.9369L82.6996 16.2298L81.9925 16.9369ZM57.5738 41.3556L56.8667 40.6485L55.1596 42.3556H57.5738V41.3556ZM91.0004 41.3556H92.0004V40.3556H91.0004V41.3556ZM91.0004 50.2102V51.2102H92.0004V50.2102H91.0004ZM55.8325 50.2102V49.2102H53.5614L55.0948 50.8854L55.8325 50.2102ZM79.5728 76.1461L80.248 76.8838L80.9856 76.2086L80.3104 75.4709L79.5728 76.1461ZM73.0412 82.1247L72.3036 82.7999L72.9788 83.5376L73.7164 82.8624L73.0412 82.1247ZM50.201 57.1721L50.9387 56.4969L49.201 54.5986V57.1721H50.201ZM50.201 90.9999V91.9999H51.201V90.9999H50.201ZM41.3464 90.9999H40.3464V91.9999H41.3464V90.9999ZM41.3464 57.5831H42.3464V55.1688L40.6393 56.876L41.3464 57.5831ZM18.0391 80.8903L17.332 81.5974L18.0391 82.3045L18.7463 81.5974L18.0391 80.8903ZM11.778 74.6291L11.0709 73.922L10.3638 74.6291L11.0709 75.3362L11.778 74.6291ZM36.1969 50.2102L36.904 50.9173L38.6111 49.2102H36.1969V50.2102ZM0.556641 50.2102H-0.443359V51.2102H0.556641V50.2102ZM0.556641 41.3556V40.3556H-0.443359V41.3556H0.556641ZM35.7234 41.3556V42.3556H37.9945L36.4611 40.6804L35.7234 41.3556ZM11.9741 15.4098L11.2989 14.6722L10.5613 15.3474L11.2365 16.085L11.9741 15.4098ZM18.5057 9.43124L19.2433 8.75605L18.5681 8.01841L17.8305 8.69361L18.5057 9.43124ZM41.3464 34.3844L40.6087 35.0596L42.3464 36.9579V34.3844H41.3464ZM50.201 -0.443848H41.3464V1.55615H50.201V-0.443848ZM51.201 36.2061V0.556152H49.201V36.2061H51.201ZM75.0242 9.96865L49.4939 35.499L50.9081 36.9132L76.4385 11.3829L75.0242 9.96865ZM82.6996 16.2298L76.4385 9.96865L75.0242 11.3829L81.2854 17.644L82.6996 16.2298ZM58.281 42.0627L82.6996 17.644L81.2854 16.2298L56.8667 40.6485L58.281 42.0627ZM91.0004 40.3556H57.5738V42.3556H91.0004V40.3556ZM92.0004 50.2102V41.3556H90.0004V50.2102H92.0004ZM55.8325 51.2102H91.0004V49.2102H55.8325V51.2102ZM80.3104 75.4709L56.5701 49.535L55.0948 50.8854L78.8351 76.8213L80.3104 75.4709ZM73.7164 82.8624L80.248 76.8838L78.8976 75.4085L72.366 81.3871L73.7164 82.8624ZM49.4634 57.8473L72.3036 82.7999L73.7789 81.4495L50.9387 56.4969L49.4634 57.8473ZM51.201 90.9999V57.1721H49.201V90.9999H51.201ZM41.3464 91.9999H50.201V89.9999H41.3464V91.9999ZM40.3464 57.5831V90.9999H42.3464V57.5831H40.3464ZM18.7463 81.5974L42.0535 58.2902L40.6393 56.876L17.332 80.1832L18.7463 81.5974ZM11.0709 75.3362L17.332 81.5974L18.7463 80.1832L12.4851 73.922L11.0709 75.3362ZM35.4898 49.5031L11.0709 73.922L12.4851 75.3362L36.904 50.9173L35.4898 49.5031ZM0.556641 51.2102H36.1969V49.2102H0.556641V51.2102ZM-0.443359 41.3556V50.2102H1.55664V41.3556H-0.443359ZM35.7234 40.3556H0.556641V42.3556H35.7234V40.3556ZM11.2365 16.085L34.9858 42.0308L36.4611 40.6804L12.7118 14.7346L11.2365 16.085ZM17.8305 8.69361L11.2989 14.6722L12.6493 16.1475L19.1809 10.1689L17.8305 8.69361ZM42.084 33.7092L19.2433 8.75605L17.768 10.1064L40.6087 35.0596L42.084 33.7092ZM40.3464 0.556152V34.3844H42.3464V0.556152H40.3464Z" fill="#FFC803" mask="url(#path-1-inside-1_16_326)"/>
</svg>
