<svg width="98" height="139" viewBox="0 0 98 139" fill="none" xmlns="http://www.w3.org/2000/svg">
<path d="M0 23.2611C0 23.2611 56.9265 3.1084 74.9412 27.768C89.8053 48.1149 99.4277 60.9394 90.614 87.8009C84.0087 107.932 64.6728 118.538 44.6765 118.538C24.6801 118.538 0 139 0 139V23.2611Z" fill="#F5F5F5"/>
<path d="M0 23.2611C0 23.2611 56.9265 3.1084 74.9412 27.768C89.8053 48.1149 99.4277 60.9394 90.614 87.8009C84.0087 107.932 64.6728 118.538 44.6765 118.538C24.6801 118.538 0 139 0 139V23.2611Z" fill="url(#paint0_linear_5_4)" fill-opacity="0.4"/>
<path d="M98 67.2876C98 95.4646 76.062 118.307 49 118.307C21.938 118.307 0 95.4646 0 67.2876C0 39.1107 21.938 16.2688 49 16.2688C76.062 16.2688 98 39.1107 98 67.2876Z" fill="#F5F5F5"/>
<path d="M98 67.2876C98 95.4646 76.062 118.307 49 118.307C21.938 118.307 0 95.4646 0 67.2876C0 39.1107 21.938 16.2688 49 16.2688C76.062 16.2688 98 39.1107 98 67.2876Z" fill="url(#paint1_linear_5_4)" fill-opacity="0.4"/>
<path fill-rule="evenodd" clip-rule="evenodd" d="M72.8619 31.3758C80.2584 27.5853 81.4265 25.1826 81.4265 22.8954C81.4265 20.6082 80.2584 18.2055 72.8619 14.415C66.0585 10.9285 56.1026 8.53727 44.6765 8.53727C33.2503 8.53727 23.2944 10.9285 16.4911 14.415C9.09452 18.2055 7.92647 20.6082 7.92647 22.8954C7.92647 25.1826 9.09452 27.5853 16.4911 31.3758C23.2944 34.8623 33.2503 37.2535 44.6765 37.2535C56.1026 37.2535 66.0585 34.8623 72.8619 31.3758ZM44.6765 45.7908C69.3506 45.7908 89.3529 35.5402 89.3529 22.8954C89.3529 10.2506 69.3506 0 44.6765 0C20.0023 0 0 10.2506 0 22.8954C0 35.5402 20.0023 45.7908 44.6765 45.7908Z" fill="#F5F5F5"/>
<path fill-rule="evenodd" clip-rule="evenodd" d="M72.8619 31.3758C80.2584 27.5853 81.4265 25.1826 81.4265 22.8954C81.4265 20.6082 80.2584 18.2055 72.8619 14.415C66.0585 10.9285 56.1026 8.53727 44.6765 8.53727C33.2503 8.53727 23.2944 10.9285 16.4911 14.415C9.09452 18.2055 7.92647 20.6082 7.92647 22.8954C7.92647 25.1826 9.09452 27.5853 16.4911 31.3758C23.2944 34.8623 33.2503 37.2535 44.6765 37.2535C56.1026 37.2535 66.0585 34.8623 72.8619 31.3758ZM44.6765 45.7908C69.3506 45.7908 89.3529 35.5402 89.3529 22.8954C89.3529 10.2506 69.3506 0 44.6765 0C20.0023 0 0 10.2506 0 22.8954C0 35.5402 20.0023 45.7908 44.6765 45.7908Z" fill="url(#paint2_linear_5_4)" fill-opacity="0.4"/>
<path d="M83.9485 23.256C83.9485 33.1129 66.3658 41.1035 44.6765 41.1035C22.9871 41.1035 5.40441 33.1129 5.40441 23.256C5.40441 13.399 22.9871 5.40836 44.6765 5.40836C66.3658 5.40836 83.9485 13.399 83.9485 23.256Z" fill="#F5F5F5"/>
<path d="M83.9485 23.256C83.9485 33.1129 66.3658 41.1035 44.6765 41.1035C22.9871 41.1035 5.40441 33.1129 5.40441 23.256C5.40441 13.399 22.9871 5.40836 44.6765 5.40836C66.3658 5.40836 83.9485 13.399 83.9485 23.256Z" fill="url(#paint3_linear_5_4)" fill-opacity="0.4"/>
<defs>
<linearGradient id="paint0_linear_5_4" x1="33" y1="53.5" x2="7" y2="21" gradientUnits="userSpaceOnUse">
<stop stop-color="white" stop-opacity="0"/>
<stop offset="1" stop-color="white"/>
</linearGradient>
<linearGradient id="paint1_linear_5_4" x1="33" y1="53.5" x2="7" y2="21" gradientUnits="userSpaceOnUse">
<stop stop-color="white" stop-opacity="0"/>
<stop offset="1" stop-color="white"/>
</linearGradient>
<linearGradient id="paint2_linear_5_4" x1="33" y1="53.5" x2="7" y2="21" gradientUnits="userSpaceOnUse">
<stop stop-color="white" stop-opacity="0"/>
<stop offset="1" stop-color="white"/>
</linearGradient>
<linearGradient id="paint3_linear_5_4" x1="33" y1="53.5" x2="7" y2="21" gradientUnits="userSpaceOnUse">
<stop stop-color="white" stop-opacity="0"/>
<stop offset="1" stop-color="white"/>
</linearGradient>
</defs>
</svg>
