<svg width="141" height="141" viewBox="0 0 141 141" fill="none" xmlns="http://www.w3.org/2000/svg">
<path d="M80.3174 45.7314L80.4734 46.422L81.0721 46.044L118.746 22.2536L94.956 59.9279L94.578 60.5266L95.2686 60.6826L138.731 70.5L95.2686 80.3174L94.578 80.4734L94.956 81.0721L118.746 118.746L81.0721 94.956L80.4734 94.578L80.3174 95.2686L70.5 138.731L60.6826 95.2686L60.5266 94.578L59.9279 94.956L22.2536 118.746L46.044 81.0721L46.422 80.4734L45.7314 80.3174L2.26927 70.5L45.7314 60.6826L46.422 60.5266L46.044 59.9279L22.2536 22.2536L59.9279 46.044L60.5266 46.422L60.6826 45.7314L70.5 2.26927L80.3174 45.7314Z" fill="#FFE68D" stroke="#FFC803"/>
</svg>
