<svg width="265" height="160" viewBox="0 0 265 160" fill="none" xmlns="http://www.w3.org/2000/svg">
<path d="M161.122 19.473L163.202 23.9986C169.717 38.175 185.387 45.7213 200.533 41.9764L205.368 40.7809C231.502 34.3194 253.174 61.4954 241.059 85.5358L238.818 89.9837C231.796 103.916 235.666 120.873 248.038 130.379L251.987 133.414C273.333 149.817 265.598 183.705 239.249 189.223L234.374 190.243C219.103 193.441 208.259 207.039 208.54 222.638L208.63 227.618C209.114 254.534 177.797 269.616 157.055 252.455L153.217 249.28C141.196 239.335 123.804 239.335 111.783 249.28L107.945 252.455C87.2033 269.616 55.8861 254.534 56.3704 227.618L56.46 222.638C56.7407 207.039 45.8967 193.441 30.626 190.243L25.751 189.223C-0.597923 183.705 -8.33265 149.817 13.0131 133.414L16.9624 130.379C29.3335 120.873 33.2037 103.916 26.1825 89.9837L23.941 85.5358C11.8263 61.4955 33.4985 34.3194 59.6319 40.7809L64.467 41.9764C79.6128 45.7213 95.2828 38.175 101.798 23.9986L103.878 19.473C115.12 -4.98759 149.88 -4.9876 161.122 19.473Z" fill="#AF96FB" stroke="black"/>
</svg>
