<svg width="200" height="292" viewBox="0 0 200 292" fill="none" xmlns="http://www.w3.org/2000/svg">
<mask id="path-1-inside-1_5_534" fill="white">
<path fill-rule="evenodd" clip-rule="evenodd" d="M131.49 0H160.034V114.922L242.335 32.6215L262.518 52.8051L183.801 131.522H291.556V160.066H178.189L254.718 243.674L233.663 262.946L160.034 182.508V291.556H131.49V183.833L56.3571 258.967L36.1734 238.783L114.89 160.066H0V131.522H113.365L36.8058 47.8827L57.861 28.61L131.49 109.049V0Z"/>
</mask>
<path fill-rule="evenodd" clip-rule="evenodd" d="M131.49 0H160.034V114.922L242.335 32.6215L262.518 52.8051L183.801 131.522H291.556V160.066H178.189L254.718 243.674L233.663 262.946L160.034 182.508V291.556H131.49V183.833L56.3571 258.967L36.1734 238.783L114.89 160.066H0V131.522H113.365L36.8058 47.8827L57.861 28.61L131.49 109.049V0Z" fill="#49DBC8"/>
<path d="M160.034 0H161.034V-1H160.034V0ZM131.49 0V-1H130.49V0H131.49ZM160.034 114.922H159.034V117.336L160.741 115.629L160.034 114.922ZM242.335 32.6215L243.042 31.9144L242.335 31.2073L241.628 31.9144L242.335 32.6215ZM262.518 52.8051L263.226 53.5122L263.933 52.8051L263.226 52.098L262.518 52.8051ZM183.801 131.522L183.094 130.815L181.387 132.522H183.801V131.522ZM291.556 131.522H292.556V130.522H291.556V131.522ZM291.556 160.066V161.066H292.556V160.066H291.556ZM178.189 160.066V159.066H175.918L177.451 160.741L178.189 160.066ZM254.718 243.674L255.393 244.411L256.131 243.736L255.456 242.998L254.718 243.674ZM233.663 262.946L232.925 263.621L233.601 264.359L234.338 263.684L233.663 262.946ZM160.034 182.508L160.772 181.833L159.034 179.934V182.508H160.034ZM160.034 291.556V292.556H161.034V291.556H160.034ZM131.49 291.556H130.49V292.556H131.49V291.556ZM131.49 183.833H132.49V181.419L130.783 183.126L131.49 183.833ZM56.3571 258.967L55.6499 259.674L56.3571 260.381L57.0642 259.674L56.3571 258.967ZM36.1734 238.783L35.4663 238.076L34.7592 238.783L35.4663 239.49L36.1734 238.783ZM114.89 160.066L115.597 160.773L117.304 159.066H114.89V160.066ZM0 160.066H-1V161.066H0V160.066ZM0 131.522V130.522H-1V131.522H0ZM113.365 131.522V132.522H115.636L114.102 130.847L113.365 131.522ZM36.8058 47.8827L36.1306 47.1451L35.393 47.8203L36.0682 48.5579L36.8058 47.8827ZM57.861 28.61L58.5986 27.9348L57.9235 27.1972L57.1858 27.8723L57.861 28.61ZM131.49 109.049L130.753 109.724L132.49 111.622V109.049H131.49ZM160.034 -1H131.49V1H160.034V-1ZM161.034 114.922V0H159.034V114.922H161.034ZM241.628 31.9144L159.327 114.215L160.741 115.629L243.042 33.3286L241.628 31.9144ZM263.226 52.098L243.042 31.9144L241.628 33.3286L261.811 53.5122L263.226 52.098ZM184.509 132.229L263.226 53.5122L261.811 52.098L183.094 130.815L184.509 132.229ZM291.556 130.522H183.801V132.522H291.556V130.522ZM292.556 160.066V131.522H290.556V160.066H292.556ZM178.189 161.066H291.556V159.066H178.189V161.066ZM255.456 242.998L178.926 159.391L177.451 160.741L253.981 244.349L255.456 242.998ZM234.338 263.684L255.393 244.411L254.043 242.936L232.988 262.209L234.338 263.684ZM159.297 183.183L232.925 263.621L234.401 262.271L160.772 181.833L159.297 183.183ZM161.034 291.556V182.508H159.034V291.556H161.034ZM131.49 292.556H160.034V290.556H131.49V292.556ZM130.49 183.833V291.556H132.49V183.833H130.49ZM57.0642 259.674L132.197 184.54L130.783 183.126L55.6499 258.259L57.0642 259.674ZM35.4663 239.49L55.6499 259.674L57.0642 258.259L36.8805 238.076L35.4663 239.49ZM114.183 159.359L35.4663 238.076L36.8805 239.49L115.597 160.773L114.183 159.359ZM0 161.066H114.89V159.066H0V161.066ZM-1 131.522V160.066H1V131.522H-1ZM113.365 130.522H0V132.522H113.365V130.522ZM36.0682 48.5579L112.627 132.197L114.102 130.847L37.5435 47.2075L36.0682 48.5579ZM57.1858 27.8723L36.1306 47.1451L37.481 48.6204L58.5362 29.3476L57.1858 27.8723ZM132.228 108.374L58.5986 27.9348L57.1234 29.2852L130.753 109.724L132.228 108.374ZM130.49 0V109.049H132.49V0H130.49Z" fill="#FFC803" mask="url(#path-1-inside-1_5_534)"/>
</svg>
