<svg width="72" height="73" viewBox="0 0 72 73" fill="none" xmlns="http://www.w3.org/2000/svg">
<g id="Frame" clip-path="url(#clip0_5_1184)">
<path id="Vector" d="M39.2037 64.8775C52.2217 77.8895 73.7117 49.5396 70.6437 49.5396C55.3057 49.5396 26.1897 51.8615 39.2037 64.8775V64.8775Z" fill="#77B255"/>
<path id="Vector_2" d="M31.2878 66.9634C19.2238 79.0274 -0.140193 52.7454 2.70381 52.7454C10.3238 52.7454 21.4518 52.0494 28.2838 54.4794C34.1998 56.5834 36.8918 61.3634 31.2878 66.9634Z" fill="#77B255"/>
<path id="Vector_3" d="M69.2257 31.7274C69.1217 29.9254 68.8757 26.5574 66.4297 23.2734C64.1097 20.1754 58.8197 16.5314 55.3617 18.1034C56.3937 14.7514 54.8337 9.85342 52.9797 7.12342C50.6217 3.65142 44.4557 -0.562583 36.6877 1.07142C33.1797 1.80942 28.3277 5.14342 27.4237 8.79942C25.0637 5.85742 18.9837 5.44942 15.3937 6.35542C11.3417 7.37742 9.08568 9.90942 7.91568 11.2774L7.92168 11.2674L7.86168 11.3354L7.80768 11.4014C6.64168 12.7794 4.49568 15.3894 4.11368 19.5494C3.72768 23.8414 5.61368 31.2134 10.1657 31.6334C10.4637 31.6614 10.8137 31.6954 11.1937 31.7354C6.65168 31.9314 4.04968 39.0434 4.00368 43.3354C3.95968 47.5394 5.85568 50.3474 6.88968 51.8214L6.88368 51.8134C6.89968 51.8334 6.92168 51.8614 6.93368 51.8854C6.94768 51.9074 6.97368 51.9314 6.98568 51.9574C8.03168 53.4234 10.0357 56.1454 14.0157 57.5094C17.9317 58.8474 25.1217 58.8214 27.1497 55.0374C26.6037 59.5254 33.2037 63.1914 37.4877 63.9134C41.7177 64.6294 44.9077 63.1974 46.5877 62.4074L46.5777 62.4134C46.6037 62.3974 46.6337 62.3834 46.6597 62.3714L46.7417 62.3314C48.4177 61.5314 51.5377 59.9754 53.6657 56.2514C55.1237 53.6874 56.2057 49.4454 55.5677 46.2214L55.9517 46.4754C59.6037 48.9234 65.2117 44.2374 67.3617 40.5994C69.4497 37.0774 69.2257 31.7514 69.2257 31.7274V31.7274Z" fill="#F4ABBA"/>
<path id="Vector_4" d="M55.0838 27.3036C51.5118 25.3096 45.3358 26.4356 41.4998 27.9196C40.9678 26.9836 40.2578 26.1696 39.3978 25.5276C42.1838 22.3136 46.4498 16.3416 42.3338 12.8036C37.9518 9.0376 34.8538 17.1116 35.1838 24.0136C35.0478 24.0076 34.9198 23.9736 34.7818 23.9736C32.7438 23.9736 30.9018 24.7776 29.5178 26.0636C26.7158 21.5096 21.6338 17.5756 18.8898 21.2796C15.9258 25.2836 21.1858 27.5856 27.3338 29.6796C27.1538 30.3376 27.0258 31.0156 27.0258 31.7296C27.0258 32.6416 27.2118 33.5036 27.5018 34.3156C22.4198 35.7796 15.0298 39.7516 19.0818 44.1356C23.3258 48.7276 28.0258 41.6596 30.2898 38.0296C31.5598 38.9376 33.1038 39.4836 34.7838 39.4836C35.2338 39.4836 35.6658 39.4256 36.0938 39.3516C35.8758 48.9556 38.9798 53.4916 44.1658 51.1356C48.7558 49.0496 43.8918 40.5376 40.6038 36.8056C41.2358 36.0816 41.7318 35.2476 42.0618 34.3236C56.0778 39.4116 59.2398 29.6216 55.0838 27.3036V27.3036Z" fill="#EA596E"/>
<path id="Vector_5" d="M35.4138 35.1374C34.0558 35.1374 34.0778 34.0134 33.7498 32.6374C32.6858 28.1714 28.9878 20.0214 24.5478 14.3114C23.5298 13.0034 23.7658 11.1194 25.0738 10.1014C26.3818 9.08543 28.2658 9.31943 29.2838 10.6274C34.1618 16.8994 35.8118 25.4354 37.2478 31.4694C37.6298 33.0814 37.7218 34.6714 36.1098 35.0534C35.8778 35.1094 35.6438 35.1374 35.4138 35.1374V35.1374Z" fill="#BE1931"/>
<path id="Vector_6" d="M31.8077 10.8736C32.8037 12.2416 31.9657 14.5496 29.9357 16.0296L28.9857 16.7236C26.9537 18.2016 24.4997 18.2936 23.5037 16.9256L17.9437 9.29156C16.9477 7.92356 17.7857 5.61556 19.8157 4.13756L20.7657 3.44356C22.7957 1.96556 25.2497 1.87356 26.2457 3.24156L31.8077 10.8736V10.8736Z" fill="#FFCC4D"/>
</g>
<defs>
<clipPath id="clip0_5_1184">
<rect width="72" height="72" fill="white" transform="translate(-0.000244141 0.219482)"/>
</clipPath>
</defs>
</svg>
