<svg width="94" height="184" viewBox="0 0 94 184" fill="none" xmlns="http://www.w3.org/2000/svg">
<path d="M-6.6957 5.98034C-5.04224 -0.563101 4.25468 -0.563112 5.90814 5.98031L16.5609 48.1377C17.706 52.6694 22.6724 55.0611 26.9294 53.1309L66.5312 35.1749C72.678 32.3878 78.4745 39.6565 74.3896 45.0289L48.0715 79.6422C45.2424 83.363 46.469 88.7371 50.6323 90.8619L89.3623 110.628C95.3737 113.697 93.305 122.76 86.5576 122.916L43.0868 123.921C38.4138 124.029 34.977 128.339 35.9115 132.919L44.6052 175.523C45.9545 182.136 37.5783 186.17 33.2495 180.992L5.36035 147.631C2.36238 144.045 -3.14992 144.045 -6.1479 147.631L-34.037 180.992C-38.3658 186.17 -46.7421 182.136 -45.3927 175.523L-36.6991 132.919C-35.7645 128.339 -39.2014 124.029 -43.8744 123.921L-87.3452 122.916C-94.0925 122.76 -96.1613 113.697 -90.1498 110.628L-51.4199 90.862C-47.2566 88.7371 -46.03 83.363 -48.859 79.6422L-75.1771 45.029C-79.2621 39.6565 -73.4655 32.3878 -67.3188 35.1749L-27.717 53.1309C-23.46 55.0611 -18.4935 52.6694 -17.3484 48.1377L-6.6957 5.98034Z" fill="#FF7DE2" stroke="black"/>
</svg>
