<svg width="105" height="184" viewBox="0 0 105 184" fill="none" xmlns="http://www.w3.org/2000/svg">
<path id="Star 13" d="M88.2237 5.98034C89.8772 -0.563101 99.1741 -0.563112 100.828 5.98031L111.48 48.1377C112.625 52.6694 117.592 55.0611 121.849 53.1309L161.451 35.1749C167.597 32.3878 173.394 39.6565 169.309 45.0289L142.991 79.6422C140.162 83.363 141.388 88.7371 145.552 90.8619L184.282 110.628C190.293 113.697 188.224 122.76 181.477 122.916L138.006 123.921C133.333 124.029 129.896 128.339 130.831 132.919L139.525 175.523C140.874 182.136 132.498 186.17 128.169 180.992L100.28 147.631C97.2818 144.045 91.7695 144.045 88.7715 147.631L60.8824 180.992C56.5536 186.17 48.1773 182.136 49.5267 175.523L58.2204 132.919C59.1549 128.339 55.718 124.029 51.0451 123.921L7.57426 122.916C0.826954 122.76 -1.24183 113.697 4.76962 110.628L43.4996 90.862C47.6629 88.7371 48.8895 83.363 46.0604 79.6422L19.7423 45.029C15.6573 39.6565 21.4539 32.3878 27.6007 35.1749L67.2024 53.1309C71.4595 55.0611 76.4259 52.6694 77.571 48.1377L88.2237 5.98034Z" fill="#FF7DE2" stroke="black"/>
</svg>
