<svg width="103" height="100" viewBox="0 0 103 100" fill="none" xmlns="http://www.w3.org/2000/svg">
<path id="Star 13" d="M55.0146 3.59205L60.776 26.3925C61.3953 28.8434 64.0813 30.1369 66.3837 29.093L87.802 19.3816C91.1264 17.8743 94.2614 21.8055 92.0521 24.7111L77.8182 43.4314C76.2881 45.4438 76.9515 48.3503 79.2032 49.4995L100.15 60.19C103.401 61.8493 102.282 66.7514 98.6331 66.8358L75.1223 67.3792C72.595 67.4376 70.7362 69.7684 71.2416 72.2454L75.9435 95.2877C76.6733 98.8641 72.1431 101.046 69.8019 98.2453L54.7183 80.2026C53.0969 78.2631 50.1156 78.2631 48.4942 80.2026L33.4106 98.2453C31.0694 101.046 26.5392 98.8641 27.269 95.2876L31.9708 72.2454C32.4763 69.7684 30.6175 67.4376 28.0902 67.3792L4.57936 66.8358C0.93015 66.7514 -0.188717 61.8493 3.06252 60.19L24.0092 49.4995C26.2609 48.3503 26.9243 45.4438 25.3942 43.4314L11.1603 24.7111C8.95103 21.8055 12.086 17.8743 15.4105 19.3816L36.8287 29.093C39.1311 30.1369 41.8171 28.8434 42.4365 26.3925L48.1979 3.59204C49.0921 0.053093 54.1203 0.0530977 55.0146 3.59205Z" fill="#FF7DE2" stroke="black" stroke-width="0.540841"/>
</svg>
