<svg width="72" height="73" viewBox="0 0 72 73" fill="none" xmlns="http://www.w3.org/2000/svg">
<g id="Frame" clip-path="url(#clip0_4_163)">
<path id="Vector" d="M35.9997 71.8194C35.2197 71.8194 34.5097 71.3834 34.1577 70.6894L30.5577 63.5814L24.5097 68.7734C24.1277 69.0954 23.6497 69.2674 23.1657 69.2674C22.8997 69.2674 22.6317 69.2174 22.3777 69.1114C21.6597 68.8154 21.1657 68.1374 21.1097 67.3654L20.5017 59.4134L12.9257 61.8954C12.7157 61.9634 12.4997 61.9974 12.2837 61.9974C11.7437 61.9974 11.2197 61.7854 10.8237 61.3914C10.2757 60.8454 10.0817 60.0294 10.3237 59.2894L12.8037 51.7134L4.85966 51.1114C4.08566 51.0494 3.40766 50.5614 3.10966 49.8434C2.81366 49.1214 2.94366 48.2994 3.44966 47.7094L8.63766 41.6614L1.52966 38.0614C0.835658 37.7094 0.399658 36.9954 0.399658 36.2194C0.399658 35.4434 0.835658 34.7294 1.52966 34.3774L8.63766 30.7774L3.44966 24.7294C2.94566 24.1394 2.81366 23.3134 3.10966 22.5974C3.40766 21.8794 4.08366 21.3854 4.85966 21.3294L12.8037 20.7214L10.3237 13.1454C10.0817 12.4054 10.2757 11.5954 10.8237 11.0434C11.2197 10.6514 11.7437 10.4414 12.2837 10.4414C12.4997 10.4414 12.7157 10.4754 12.9257 10.5434L20.5017 13.0234L21.1097 5.07938C21.1677 4.30338 21.6597 3.62738 22.3777 3.32938C22.6317 3.22538 22.8997 3.17338 23.1657 3.17338C23.6497 3.17338 24.1277 3.34138 24.5097 3.66938L30.5577 8.85738L34.1577 1.74938C34.5097 1.05538 35.2197 0.619385 35.9997 0.619385C36.7757 0.619385 37.4897 1.05538 37.8397 1.74938L41.4437 8.85738L47.4917 3.66938C47.8717 3.34138 48.3537 3.17338 48.8337 3.17338C49.1037 3.17338 49.3697 3.22538 49.6257 3.32938C50.3417 3.62738 50.8317 4.30338 50.8937 5.07938L51.4997 13.0234L59.0697 10.5434C59.2797 10.4734 59.4997 10.4414 59.7117 10.4414C60.2517 10.4414 60.7797 10.6514 61.1697 11.0434C61.7217 11.5954 61.9157 12.4074 61.6737 13.1454L59.1917 20.7214L67.1437 21.3294C67.9157 21.3874 68.5937 21.8794 68.8897 22.5974C69.1857 23.3134 69.0577 24.1394 68.5517 24.7294L63.3597 30.7774L70.4677 34.3774C71.1637 34.7314 71.5997 35.4434 71.5997 36.2194C71.5997 36.9954 71.1637 37.7074 70.4697 38.0614L63.3617 41.6614L68.5537 47.7094C69.0597 48.2994 69.1877 49.1214 68.8917 49.8434C68.5957 50.5594 67.9177 51.0494 67.1397 51.1114L59.1937 51.7134L61.6757 59.2894C61.9177 60.0314 61.7237 60.8434 61.1717 61.3914C60.7817 61.7854 60.2517 61.9974 59.7137 61.9974C59.5017 61.9974 59.2817 61.9634 59.0717 61.8954L51.5017 59.4134L50.8957 67.3594C50.8337 68.1374 50.3457 68.8154 49.6277 69.1114C49.3697 69.2174 49.1037 69.2674 48.8357 69.2674C48.3557 69.2674 47.8757 69.0954 47.4937 68.7734L41.4457 63.5814L37.8417 70.6894C37.4897 71.3834 36.7757 71.8194 35.9997 71.8194Z" fill="#F4900C"/>
<path id="Vector_2" d="M61.9998 36.2195C61.9998 50.5775 50.3578 62.2195 35.9998 62.2195C21.6418 62.2195 9.99976 50.5795 9.99976 36.2195C9.99976 21.8595 21.6418 10.2195 35.9998 10.2195C50.3578 10.2195 61.9998 21.8615 61.9998 36.2195Z" fill="#FFCC4D"/>
<path id="Vector_3" d="M35.9998 47.1615C23.5558 47.1615 19.9998 42.5055 19.9998 44.7055C19.9998 46.9095 27.1118 52.6655 35.9998 52.6655C44.8878 52.6655 51.9998 46.9075 51.9998 44.7055C51.9998 42.5055 48.4458 47.1615 35.9998 47.1615ZM51.9998 29.5535C51.9998 32.4995 49.6118 34.8875 46.6658 34.8875C43.7218 34.8875 41.3338 32.4995 41.3338 29.5535C41.3338 26.6075 43.7218 24.2195 46.6658 24.2195C49.6118 24.2195 51.9998 26.6055 51.9998 29.5535ZM30.6658 29.5535C30.6658 32.4995 28.2758 34.8875 25.3318 34.8875C22.3878 34.8875 19.9978 32.4995 19.9978 29.5535C19.9978 26.6075 22.3898 24.2195 25.3338 24.2195C28.2778 24.2195 30.6658 26.6055 30.6658 29.5535Z" fill="#F4900C"/>
</g>
<defs>
<clipPath id="clip0_4_163">
<rect width="72" height="72" fill="white" transform="translate(-0.000244141 0.219482)"/>
</clipPath>
</defs>
</svg>
