<svg width="334" height="486" viewBox="0 0 334 486" fill="none" xmlns="http://www.w3.org/2000/svg">
<path d="M89.1178 184.547L89.7473 187.334L92.1633 185.809L244.196 89.8036L148.191 241.837L146.666 244.253L149.453 244.882L324.842 284.5L149.453 324.118L146.666 324.747L148.191 327.163L244.196 479.196L92.1633 383.191L89.7473 381.666L89.1178 384.453L49.5 559.842L9.88219 384.453L9.25264 381.666L6.83672 383.191L-145.196 479.196L-49.1913 327.163L-47.6657 324.747L-50.4528 324.118L-225.842 284.5L-50.4528 244.882L-47.6657 244.253L-49.1913 241.837L-145.196 89.8035L6.83672 185.809L9.25264 187.334L9.88219 184.547L49.5 9.15761L89.1178 184.547Z" fill="#FF7DE2" stroke="#FFC803" stroke-width="4.03546"/>
</svg>
