<svg width="86" height="87" viewBox="0 0 86 87" fill="none" xmlns="http://www.w3.org/2000/svg">
<g clip-path="url(#clip0_17_216)">
<path d="M64.3284 19.8018C62.6671 19.8018 61.0651 20.053 59.5532 20.508C59.565 20.271 59.5887 20.0411 59.5887 19.8018C59.5887 11.9506 53.221 5.58289 45.3698 5.58289C38.8078 5.58289 33.3003 10.0334 31.6604 16.0741C30.0347 15.4271 28.2668 15.0622 26.4113 15.0622C18.5577 15.0622 12.1924 21.4275 12.1924 29.2811C12.1924 37.1299 18.5577 43.5 26.4113 43.5C32.9733 43.5 38.4808 39.0494 40.1207 33.0064C41.7464 33.6534 43.5143 34.0207 45.3698 34.0207C46.2585 34.0207 47.1235 33.9283 47.9671 33.7742C47.8297 34.6274 47.7396 35.4971 47.7396 36.3905C47.7396 45.5499 55.169 52.9792 64.3284 52.9792C73.4877 52.9792 80.9171 45.5499 80.9171 36.3905C80.9171 27.2288 73.4877 19.8018 64.3284 19.8018Z" fill="#CCD6DD"/>
<path d="M73.8081 52.9792C72.7014 52.9792 71.6515 53.1806 70.6349 53.4626C71.1468 52.2161 71.4383 50.8558 71.4383 49.4244C71.4383 43.5355 66.6631 38.7603 60.7741 38.7603C58.3592 38.7603 56.16 39.5921 54.3732 40.9429C52.7001 34.2481 46.6595 29.281 39.4457 29.281C32.7202 29.281 27.016 33.5988 24.9164 39.6063C23.1438 39.0565 21.2574 38.7603 19.3023 38.7603C8.83243 38.7603 0.34375 47.249 0.34375 57.7188C0.34375 68.191 8.83243 76.6773 19.3023 76.6773H73.8081C80.3535 76.6773 85.6572 71.3737 85.6572 64.8283C85.6572 58.2828 80.3535 52.9792 73.8081 52.9792Z" fill="#E1E8ED"/>
</g>
<defs>
<clipPath id="clip0_17_216">
<rect width="85.3134" height="85.3134" fill="white" transform="translate(0.34375 0.843262)"/>
</clipPath>
</defs>
</svg>
