<svg width="86" height="87" viewBox="0 0 86 87" fill="none" xmlns="http://www.w3.org/2000/svg">
<g id="Frame" clip-path="url(#clip0_17_221)">
<path id="Vector" d="M21.8867 68.3831C21.8867 66.4209 23.4631 64.8284 25.4055 64.8284C27.3479 64.8284 28.9244 66.4209 28.9244 68.3831V69.5681C28.9244 69.5681 28.9244 76.6775 35.962 76.6775C42.9996 76.6775 42.9996 69.5681 42.9996 69.5681V9.13773C42.9996 7.17315 44.5737 5.58301 46.5185 5.58301C48.4632 5.58301 50.0373 7.17315 50.0373 9.13773V69.5681C50.0373 69.5681 50.0373 83.787 35.962 83.787C21.8867 83.787 21.8867 69.5681 21.8867 69.5681V68.3831Z" fill="#66757F"/>
<path id="Vector_2" d="M46.5185 10.3225C67.8942 10.3225 85.2255 24.1148 85.2255 41.1301C85.2255 41.1301 85.2255 45.8698 82.8797 45.8698C80.5338 45.8698 75.842 41.1301 75.842 41.1301H17.195C17.195 41.1301 12.5033 45.8698 10.1574 45.8698C7.81152 45.8698 7.81152 41.1301 7.81152 41.1301C7.81152 24.1148 25.1405 10.3225 46.5185 10.3225Z" fill="#744EAA"/>
<path id="Vector_3" d="M46.5188 10.3225C62.7124 10.3225 75.8423 24.1148 75.8423 41.1301C75.8423 41.1301 75.8423 45.8698 71.1505 45.8698C66.4588 45.8698 59.4211 41.1301 59.4211 41.1301H33.6165C33.6165 41.1301 26.5788 45.8698 21.8871 45.8698C17.1953 45.8698 17.1953 41.1301 17.1953 41.1301C17.1953 24.1148 30.3229 10.3225 46.5188 10.3225Z" fill="#9266CC"/>
<path id="Vector_4" d="M46.5195 10.3225C54.9412 10.3225 59.4219 24.1148 59.4219 41.1301C59.4219 41.1301 52.3842 45.8698 47.6925 45.8698H45.3466C40.6548 45.8698 33.6172 41.1301 33.6172 41.1301C33.6172 24.1148 38.0978 10.3225 46.5195 10.3225Z" fill="#744EAA"/>
<path id="Vector_5" d="M72.0494 11.4412C70.0249 14.7897 71.104 19.136 74.461 21.1551C77.8179 23.1741 82.1812 22.0982 84.2057 18.7521C85.6297 16.4012 85.5124 13.5574 84.1565 11.3725L78.3317 1.05664L72.0494 11.4412ZM53.28 18.5506C51.2555 21.8992 52.3346 26.2454 55.6916 28.2645C59.0485 30.2836 63.4119 29.2077 65.4364 25.8615C66.8603 23.5107 66.743 20.6669 65.3871 18.4819L59.5646 8.16609L53.28 18.5506ZM25.2538 11.4412C23.2293 14.7897 24.3108 19.136 27.6654 21.1551C31.0223 23.1741 35.3857 22.0982 37.4101 18.7521C38.8341 16.4012 38.7191 13.5574 37.3585 11.3725L31.5384 1.05664L25.2538 11.4412ZM1.79501 25.4468C-0.229485 28.7953 0.851965 33.1416 4.20657 35.1607C7.56353 37.1774 11.9269 36.1039 13.9514 32.7577C15.3753 30.4068 15.2604 27.563 13.8997 25.3781L8.07962 15.0623L1.79501 25.4468Z" fill="#5DADEC"/>
</g>
<defs>
<clipPath id="clip0_17_221">
<rect width="84.4517" height="85.3134" fill="white" transform="translate(0.774414 0.843262)"/>
</clipPath>
</defs>
</svg>
