<svg width="86" height="87" viewBox="0 0 86 87" fill="none" xmlns="http://www.w3.org/2000/svg">
<g id="Frame" clip-path="url(#clip0_17_265)">
<path id="Vector" d="M45.3701 66.217V20.7853L56.8116 9.34142C56.8116 9.34142 58.487 7.66596 56.8116 5.98813C55.1361 4.31267 53.4606 5.98813 53.4606 5.98813L45.3701 14.0811V3.21308C45.3701 3.21308 45.3701 0.843262 43.0003 0.843262C40.6305 0.843262 40.6305 3.21308 40.6305 3.21308V14.0811L32.5399 5.98813C32.5399 5.98813 30.8644 4.31267 29.189 5.98813C27.5135 7.66596 29.189 9.34142 29.189 9.34142L40.6305 20.7853V66.217L29.189 77.6585C29.189 77.6585 27.5135 79.334 29.189 81.0094C30.8644 82.6849 32.5399 81.0094 32.5399 81.0094L40.6305 72.9189V83.7868C40.6305 83.7868 40.6305 86.1567 43.0003 86.1567C45.3701 86.1567 45.3701 83.7868 45.3701 83.7868V72.9189L53.4606 81.0094C53.4606 81.0094 55.1361 82.6849 56.8116 81.0094C58.487 79.334 56.8116 77.6585 56.8116 77.6585L45.3701 66.217Z" fill="#0084E6"/>
<path id="Vector_2" d="M82.3923 50.2917C81.7785 48.0025 79.4892 48.6163 79.4892 48.6163L63.8603 52.8037L24.5142 30.0867L20.3268 14.4577C20.3268 14.4577 19.713 12.1685 17.4237 12.7823C15.1321 13.3961 15.7483 15.6853 15.7483 15.6853L18.7106 26.7381L9.29764 21.3018C9.29764 21.3018 7.24538 20.1169 6.06047 22.1691C4.87556 24.2214 6.92783 25.4063 6.92783 25.4063L16.3384 30.8403L5.28554 33.8002C5.28554 33.8002 2.99393 34.414 3.61008 36.7032C4.22386 38.9948 6.51311 38.381 6.51311 38.381L22.1444 34.1936L61.4905 56.9106L65.678 72.5419C65.678 72.5419 66.2917 74.8312 68.581 74.2174C70.8702 73.6013 70.2564 71.3144 70.2564 71.3144L67.2942 60.2616L76.7071 65.6955C76.7071 65.6955 78.7617 66.8805 79.9466 64.8306C81.1315 62.7759 79.0769 61.591 79.0769 61.591L69.6664 56.157L80.7168 53.1971C80.7168 53.1948 83.0061 52.581 82.3923 50.2917Z" fill="#0084E6"/>
<path id="Vector_3" d="M80.7164 33.8L69.6636 30.8377L79.0765 25.4037C79.0765 25.4037 81.1311 24.2164 79.9462 22.1642C78.7589 20.1095 76.7067 21.2968 76.7067 21.2968L67.2961 26.7284L70.256 15.678C70.256 15.678 70.8698 13.3887 68.5806 12.775C66.2913 12.1612 65.6775 14.4504 65.6775 14.4504L61.4901 30.0794L22.1416 52.8035L6.51506 48.6137C6.51506 48.6137 4.22582 47.9999 3.61204 50.2892C2.99588 52.5808 5.2875 53.1922 5.2875 53.1922L16.338 56.1521L6.92741 61.5861C6.92741 61.5861 4.87752 62.7733 6.06243 64.8256C7.24733 66.8755 9.29723 65.6906 9.29723 65.6906L18.7101 60.2566L15.7479 71.3071C15.7479 71.3071 15.1341 73.5987 17.4233 74.2101C19.7149 74.8262 20.3287 72.537 20.3287 72.537L24.5186 56.9033L63.867 34.1886L79.4959 38.3785C79.4959 38.3785 81.7852 38.9922 82.399 36.703C83.0033 34.4114 80.7164 33.8 80.7164 33.8Z" fill="#0084E6"/>
</g>
<defs>
<clipPath id="clip0_17_265">
<rect width="85.3134" height="85.3134" fill="white" transform="translate(0.34375 0.843262)"/>
</clipPath>
</defs>
</svg>
