<svg width="222" height="214" viewBox="0 0 222 214" fill="none" xmlns="http://www.w3.org/2000/svg">
<path d="M88.8156 15.1327C97.7823 -3.75954 124.667 -3.75954 133.634 15.1327L137.2 22.6467C142.387 33.5746 154.516 39.3788 166.28 36.5623L174.264 34.6508C194.944 29.6994 211.86 51.3618 202.043 70.2253L199.635 74.8534C193.836 85.9965 196.981 99.7009 207.059 107.2L211.19 110.274C228.402 123.082 222.338 150.221 201.311 154.485L194.958 155.773C182.852 158.228 174.226 168.98 174.456 181.331L174.579 187.956C174.969 208.975 150.675 220.92 134.269 207.776L127.226 202.134C117.874 194.642 104.575 194.642 95.2233 202.134L88.1809 207.776C71.7743 220.92 47.4803 208.975 47.8709 187.956L47.994 181.331C48.2235 168.98 39.5981 158.228 27.4914 155.773L21.1382 154.485C0.111599 150.221 -5.95274 123.082 11.2593 110.274L15.3907 107.2C25.4684 99.7009 28.6138 85.9964 22.8148 74.8534L20.4063 70.2253C10.5895 51.3618 27.5054 29.6994 48.1859 34.6508L56.1696 36.5623C67.9333 39.3788 80.0626 33.5746 85.2492 22.6467L88.8156 15.1327Z" fill="#49DBC8" stroke="black" stroke-width="0.787466"/>
</svg>
