<svg width="86" height="85" viewBox="0 0 86 85" fill="none" xmlns="http://www.w3.org/2000/svg">
<g id="Frame" clip-path="url(#clip0_17_175)">
<path id="Vector" d="M43 84.1584C42.0872 84.1584 41.2564 83.6482 40.8445 82.8361L36.6319 74.5185L29.5547 80.594C29.1077 80.9708 28.5483 81.1721 27.982 81.1721C27.6707 81.1721 27.3571 81.1136 27.0599 80.9895C26.2197 80.6432 25.6416 79.8498 25.5761 78.9464L24.8646 69.6412L15.9994 72.5456C15.7536 72.6251 15.5009 72.6649 15.2481 72.6649C14.6162 72.6649 14.0031 72.4169 13.5397 71.9558C12.8984 71.3169 12.6714 70.362 12.9546 69.4961L15.8566 60.6309L6.56077 59.9264C5.65506 59.8539 4.86168 59.2828 4.51297 58.4426C4.16659 57.5978 4.31872 56.6359 4.91083 55.9455L10.9817 48.8683L2.66409 44.6557C1.85199 44.2438 1.3418 43.4083 1.3418 42.5002C1.3418 41.5921 1.85199 40.7566 2.66409 40.3447L10.9817 36.1321L4.91083 29.0549C4.32106 28.3645 4.16659 27.398 4.51297 26.5601C4.86168 25.7199 5.65271 25.1419 6.56077 25.0763L15.8566 24.3649L12.9546 15.4996C12.6714 14.6337 12.8984 13.6859 13.5397 13.0399C14.0031 12.5812 14.6162 12.3355 15.2481 12.3355C15.5009 12.3355 15.7536 12.3753 15.9994 12.4548L24.8646 15.3569L25.5761 6.06101C25.644 5.15296 26.2197 4.36192 27.0599 4.01321C27.3571 3.89151 27.6707 3.83066 27.982 3.83066C28.5483 3.83066 29.1077 4.02725 29.5547 4.41107L36.6319 10.4819L40.8445 2.16434C41.2564 1.35224 42.0872 0.842041 43 0.842041C43.908 0.842041 44.7435 1.35224 45.1531 2.16434L49.3704 10.4819L56.4476 4.41107C56.8923 4.02725 57.4563 3.83066 58.018 3.83066C58.3339 3.83066 58.6452 3.89151 58.9447 4.01321C59.7826 4.36192 60.356 5.15296 60.4285 6.06101L61.1376 15.3569L69.9959 12.4548C70.2416 12.3729 70.499 12.3355 70.7471 12.3355C71.379 12.3355 71.9968 12.5812 72.4532 13.0399C73.0992 13.6859 73.3262 14.636 73.043 15.4996L70.1386 24.3649L79.4438 25.0763C80.3472 25.1442 81.1406 25.7199 81.487 26.5601C81.8333 27.398 81.6835 28.3645 81.0914 29.0549L75.0159 36.1321L83.3335 40.3447C84.1479 40.759 84.6581 41.5921 84.6581 42.5002C84.6581 43.4083 84.1479 44.2414 83.3358 44.6557L75.0182 48.8683L81.0938 55.9455C81.6859 56.6359 81.8357 57.5978 81.4893 58.4426C81.1429 59.2805 80.3495 59.8539 79.4391 59.9264L70.141 60.6309L73.0453 69.4961C73.3285 70.3644 73.1015 71.3146 72.4556 71.9558C71.9992 72.4169 71.379 72.6649 70.7495 72.6649C70.5014 72.6649 70.2439 72.6251 69.9982 72.5456L61.14 69.6412L60.4309 78.9394C60.3583 79.8498 59.7873 80.6432 58.9471 80.9895C58.6452 81.1136 58.3339 81.1721 58.0203 81.1721C57.4586 81.1721 56.8969 80.9708 56.4499 80.594L49.3727 74.5185L45.1554 82.8361C44.7435 83.6482 43.908 84.1584 43 84.1584Z" fill="#F4900C"/>
<path id="Vector_2" d="M73.4252 42.4999C73.4252 59.3013 59.802 72.9244 43.0007 72.9244C26.1993 72.9244 12.5762 59.3036 12.5762 42.4999C12.5762 25.6963 26.1993 12.0754 43.0007 12.0754C59.802 12.0754 73.4252 25.6986 73.4252 42.4999Z" fill="#FFCC4D"/>
<path id="Vector_3" d="M43.0005 55.3039C28.4389 55.3039 24.2777 49.8555 24.2777 52.4299C24.2777 55.009 32.6 61.7445 43.0005 61.7445C53.401 61.7445 61.7233 55.0066 61.7233 52.4299C61.7233 49.8555 57.5645 55.3039 43.0005 55.3039ZM61.7233 34.6995C61.7233 38.1468 58.9289 40.9412 55.4816 40.9412C52.0366 40.9412 49.2422 38.1468 49.2422 34.6995C49.2422 31.2521 52.0366 28.4578 55.4816 28.4578C58.9289 28.4578 61.7233 31.2498 61.7233 34.6995ZM36.7588 34.6995C36.7588 38.1468 33.9621 40.9412 30.5171 40.9412C27.0721 40.9412 24.2754 38.1468 24.2754 34.6995C24.2754 31.2521 27.0744 28.4578 30.5194 28.4578C33.9644 28.4578 36.7588 31.2498 36.7588 34.6995Z" fill="#F4900C"/>
</g>
<defs>
<clipPath id="clip0_17_175">
<rect width="84.2525" height="84.2525" fill="white" transform="translate(0.874023 0.373779)"/>
</clipPath>
</defs>
</svg>
