<svg width="86" height="87" viewBox="0 0 86 87" fill="none" xmlns="http://www.w3.org/2000/svg">
<g clip-path="url(#clip0_10_8930)">
<path d="M64.5403 19.8494C62.879 19.8494 61.277 20.1006 59.7651 20.5556C59.7769 20.3186 59.8006 20.0887 59.8006 19.8494C59.8006 11.9982 53.4329 5.63049 45.5817 5.63049C39.0197 5.63049 33.5123 10.081 31.8723 16.1217C30.2466 15.4747 28.4788 15.1098 26.6232 15.1098C18.7696 15.1098 12.4043 21.4751 12.4043 29.3287C12.4043 37.1775 18.7696 43.5476 26.6232 43.5476C33.1852 43.5476 38.6927 39.097 40.3326 33.054C41.9583 33.701 43.7262 34.0683 45.5817 34.0683C46.4704 34.0683 47.3354 33.9759 48.1791 33.8218C48.0416 34.675 47.9515 35.5447 47.9515 36.4381C47.9515 45.5975 55.3809 53.0268 64.5403 53.0268C73.6996 53.0268 81.129 45.5975 81.129 36.4381C81.129 27.2764 73.6996 19.8494 64.5403 19.8494Z" fill="#CCD6DD"/>
<path d="M74.0195 53.0268C72.9128 53.0268 71.863 53.2282 70.8463 53.5102C71.3582 52.2637 71.6497 50.9034 71.6497 49.4721C71.6497 43.5831 66.8745 38.8079 60.9855 38.8079C58.5707 38.8079 56.3715 39.6397 54.5846 40.9905C52.9115 34.2957 46.8709 29.3286 39.6572 29.3286C32.9316 29.3286 27.2275 33.6464 25.1278 39.6539C23.3552 39.1041 21.4688 38.8079 19.5137 38.8079C9.04386 38.8079 0.555176 47.2966 0.555176 57.7664C0.555176 68.2386 9.04386 76.725 19.5137 76.725H74.0195C80.5649 76.725 85.8686 71.4213 85.8686 64.8759C85.8686 58.3304 80.5649 53.0268 74.0195 53.0268Z" fill="#E1E8ED"/>
</g>
<defs>
<clipPath id="clip0_10_8930">
<rect width="85.3134" height="85.3134" fill="white" transform="translate(0.555176 0.890869)"/>
</clipPath>
</defs>
</svg>
