<svg width="85" height="86" viewBox="0 0 85 86" fill="none" xmlns="http://www.w3.org/2000/svg">
<g clip-path="url(#clip0_10_8914)">
<path d="M21.1602 67.8136C21.1602 65.8514 22.7366 64.2588 24.679 64.2588C26.6214 64.2588 28.1978 65.8514 28.1978 67.8136V68.9985C28.1978 68.9985 28.1978 76.1079 35.2354 76.1079C42.2731 76.1079 42.2731 68.9985 42.2731 68.9985V8.56815C42.2731 6.60357 43.8472 5.01343 45.7919 5.01343C47.7366 5.01343 49.3107 6.60357 49.3107 8.56815V68.9985C49.3107 68.9985 49.3107 83.2174 35.2354 83.2174C21.1602 83.2174 21.1602 68.9985 21.1602 68.9985V67.8136Z" fill="#66757F"/>
<path d="M45.7915 9.75293C67.1671 9.75293 84.4985 23.5453 84.4985 40.5605C84.4985 40.5605 84.4985 45.3002 82.1526 45.3002C79.8067 45.3002 75.115 40.5605 75.115 40.5605H16.468C16.468 40.5605 11.7762 45.3002 9.43035 45.3002C7.08447 45.3002 7.08447 40.5605 7.08447 40.5605C7.08447 23.5453 24.4135 9.75293 45.7915 9.75293Z" fill="#744EAA"/>
<path d="M45.7922 9.75293C61.9858 9.75293 75.1157 23.5453 75.1157 40.5605C75.1157 40.5605 75.1157 45.3002 70.424 45.3002C65.7322 45.3002 58.6946 40.5605 58.6946 40.5605H32.8899C32.8899 40.5605 25.8523 45.3002 21.1605 45.3002C16.4688 45.3002 16.4688 40.5605 16.4688 40.5605C16.4688 23.5453 29.5963 9.75293 45.7922 9.75293Z" fill="#9266CC"/>
<path d="M45.792 9.75293C54.2137 9.75293 58.6943 23.5453 58.6943 40.5605C58.6943 40.5605 51.6567 45.3002 46.9649 45.3002H44.619C39.9273 45.3002 32.8896 40.5605 32.8896 40.5605C32.8896 23.5453 37.3703 9.75293 45.792 9.75293Z" fill="#744EAA"/>
<path d="M71.3223 10.8716C69.2979 14.2201 70.377 18.5664 73.7339 20.5855C77.0909 22.6046 81.4542 21.5287 83.4787 18.1825C84.9026 15.8316 84.7853 12.9878 83.4294 10.8029L77.6046 0.487061L71.3223 10.8716V10.8716ZM52.553 17.981C50.5285 21.3296 51.6076 25.6758 54.9645 27.6949C58.3215 29.714 62.6848 28.6381 64.7093 25.2919C66.1333 22.9411 66.016 20.0973 64.66 17.9123L58.8376 7.59651L52.553 17.981V17.981ZM24.5267 10.8716C22.5023 14.2201 23.5837 18.5664 26.9383 20.5855C30.2953 22.6046 34.6586 21.5287 36.6831 18.1825C38.107 15.8316 37.9921 12.9878 36.6315 10.8029L30.8114 0.487061L24.5267 10.8716V10.8716ZM1.06796 24.8772C-0.956536 28.2258 0.124914 32.572 3.47952 34.5911C6.83647 36.6078 11.1998 35.5343 13.2243 32.1881C14.6483 29.8372 14.5333 26.9935 13.1727 24.8085L7.35257 14.4927L1.06796 24.8772V24.8772Z" fill="#5DADEC"/>
</g>
<defs>
<clipPath id="clip0_10_8914">
<rect width="84.4517" height="85.3134" fill="white" transform="translate(0.0473633 0.273682)"/>
</clipPath>
</defs>
</svg>
