<svg width="86" height="86" viewBox="0 0 86 86" fill="none" xmlns="http://www.w3.org/2000/svg">
<g clip-path="url(#clip0_10_8887)">
<path d="M45.582 65.6474V20.2157L57.0235 8.77184C57.0235 8.77184 58.6989 7.09638 57.0235 5.41855C55.348 3.74309 53.6726 5.41855 53.6726 5.41855L45.582 13.5115V2.6435C45.582 2.6435 45.582 0.273682 43.2122 0.273682C40.8424 0.273682 40.8424 2.6435 40.8424 2.6435V13.5115L32.7518 5.41855C32.7518 5.41855 31.0764 3.74309 29.4009 5.41855C27.7254 7.09638 29.4009 8.77184 29.4009 8.77184L40.8424 20.2157V65.6474L29.4009 77.0889C29.4009 77.0889 27.7254 78.7644 29.4009 80.4398C31.0764 82.1153 32.7518 80.4398 32.7518 80.4398L40.8424 72.3493V83.2173C40.8424 83.2173 40.8424 85.5871 43.2122 85.5871C45.582 85.5871 45.582 83.2173 45.582 83.2173V72.3493L53.6726 80.4398C53.6726 80.4398 55.348 82.1153 57.0235 80.4398C58.6989 78.7644 57.0235 77.0889 57.0235 77.0889L45.582 65.6474Z" fill="#88C9F9"/>
<path d="M82.6032 49.7222C81.9894 47.4329 79.7002 48.0467 79.7002 48.0467L64.0712 52.2342L24.7252 29.5171L20.5377 13.8882C20.5377 13.8882 19.9239 11.5989 17.6347 12.2127C15.3431 12.8265 15.9592 15.1157 15.9592 15.1157L18.9215 26.1686L9.50858 20.7322C9.50858 20.7322 7.45632 19.5473 6.27141 21.5995C5.0865 23.6518 7.13876 24.8367 7.13876 24.8367L16.5493 30.2707L5.49648 33.2306C5.49648 33.2306 3.20487 33.8444 3.82102 36.1336C4.4348 38.4252 6.72404 37.8115 6.72404 37.8115L22.3554 33.624L61.7014 56.3411L65.8889 71.9724C65.8889 71.9724 66.5027 74.2616 68.7919 73.6478C71.0812 73.0317 70.4674 70.7448 70.4674 70.7448L67.5051 59.692L76.918 65.126C76.918 65.126 78.9726 66.3109 80.1576 64.261C81.3425 62.2064 79.2878 61.0214 79.2878 61.0214L69.8773 55.5875L80.9277 52.6276C80.9277 52.6252 83.217 52.0114 82.6032 49.7222V49.7222Z" fill="#88C9F9"/>
<path d="M80.9278 33.2306L69.875 30.2684L79.2879 24.8344C79.2879 24.8344 81.3425 23.6471 80.1576 21.5948C78.9703 19.5402 76.9181 20.7275 76.9181 20.7275L67.5076 26.1591L70.4674 15.1086C70.4674 15.1086 71.0812 12.8194 68.792 12.2056C66.5027 11.5918 65.889 13.8811 65.889 13.8811L61.7015 29.51L22.3531 52.2342L6.72649 48.0444C6.72649 48.0444 4.43724 47.4306 3.82346 49.7198C3.20731 52.0114 5.49892 52.6228 5.49892 52.6228L16.5494 55.5827L7.13883 61.0167C7.13883 61.0167 5.08894 62.204 6.27385 64.2563C7.45876 66.3062 9.50865 65.1213 9.50865 65.1213L18.9216 59.6873L15.9593 70.7377C15.9593 70.7377 15.3455 73.0293 17.6348 73.6407C19.9264 74.2569 20.5401 71.9677 20.5401 71.9677L24.73 56.334L64.0784 33.6193L79.7074 37.8091C79.7074 37.8091 81.9966 38.4229 82.6104 36.1337C83.2147 33.842 80.9278 33.2306 80.9278 33.2306V33.2306Z" fill="#88C9F9"/>
</g>
<defs>
<clipPath id="clip0_10_8887">
<rect width="85.3134" height="85.3134" fill="white" transform="translate(0.555176 0.273682)"/>
</clipPath>
</defs>
</svg>
