<svg width="85" height="85" viewBox="0 0 85 85" fill="none" xmlns="http://www.w3.org/2000/svg">
<g clip-path="url(#clip0_10_8934)">
<path d="M42.2739 84.2059C41.3612 84.2059 40.5303 83.6957 40.1184 82.8836L35.9058 74.566L28.8286 80.6415C28.3816 81.0183 27.8222 81.2196 27.2559 81.2196C26.9446 81.2196 26.631 81.1611 26.3338 81.037C25.4936 80.6907 24.9155 79.8973 24.85 78.9939L24.1385 69.6887L15.2733 72.5931C15.0276 72.6726 14.7748 72.7124 14.5221 72.7124C13.8902 72.7124 13.277 72.4643 12.8136 72.0033C12.1724 71.3644 11.9453 70.4095 12.2285 69.5436L15.1306 60.6784L5.8347 59.9739C4.92898 59.9014 4.1356 59.3303 3.78689 58.4901C3.44052 57.6453 3.59264 56.6834 4.18475 55.993L10.2556 48.9158L1.93802 44.7031C1.12592 44.2912 0.615723 43.4557 0.615723 42.5477C0.615723 41.6396 1.12592 40.8041 1.93802 40.3922L10.2556 36.1796L4.18475 29.1024C3.59498 28.412 3.44052 27.4454 3.78689 26.6076C4.1356 25.7674 4.92664 25.1893 5.8347 25.1238L15.1306 24.4123L12.2285 15.5471C11.9453 14.6812 12.1724 13.7333 12.8136 13.0874C13.277 12.6287 13.8902 12.383 14.5221 12.383C14.7748 12.383 15.0276 12.4228 15.2733 12.5023L24.1385 15.4044L24.85 6.1085C24.9179 5.20044 25.4936 4.40941 26.3338 4.0607C26.631 3.939 26.9446 3.87815 27.2559 3.87815C27.8222 3.87815 28.3816 4.07474 28.8286 4.45855L35.9058 10.5294L40.1184 2.21182C40.5303 1.39972 41.3612 0.889526 42.2739 0.889526C43.1819 0.889526 44.0174 1.39972 44.427 2.21182L48.6443 10.5294L55.7215 4.45855C56.1662 4.07474 56.7302 3.87815 57.2919 3.87815C57.6078 3.87815 57.9191 3.939 58.2187 4.0607C59.0565 4.40941 59.6299 5.20044 59.7024 6.1085L60.4116 15.4044L69.2698 12.5023C69.5155 12.4204 69.773 12.383 70.021 12.383C70.6529 12.383 71.2708 12.6287 71.7271 13.0874C72.3731 13.7333 72.6001 14.6835 72.3169 15.5471L69.4125 24.4123L78.7178 25.1238C79.6211 25.1917 80.4145 25.7674 80.7609 26.6076C81.1073 27.4454 80.9575 28.412 80.3654 29.1024L74.2898 36.1796L82.6074 40.3922C83.4219 40.8065 83.932 41.6396 83.932 42.5477C83.932 43.4557 83.4219 44.2889 82.6098 44.7031L74.2922 48.9158L80.3677 55.993C80.9598 56.6834 81.1096 57.6453 80.7632 58.4901C80.4168 59.328 79.6235 59.9014 78.7131 59.9739L69.4149 60.6784L72.3193 69.5436C72.6024 70.4119 72.3754 71.362 71.7295 72.0033C71.2731 72.4643 70.6529 72.7124 70.0234 72.7124C69.7753 72.7124 69.5179 72.6726 69.2721 72.5931L60.4139 69.6887L59.7048 78.9869C59.6322 79.8973 59.0612 80.6907 58.221 81.037C57.9191 81.1611 57.6078 81.2196 57.2942 81.2196C56.7325 81.2196 56.1709 81.0183 55.7239 80.6415L48.6466 74.566L44.4293 82.8836C44.0174 83.6957 43.1819 84.2059 42.2739 84.2059V84.2059Z" fill="#F4900C"/>
<path d="M72.6986 42.5477C72.6986 59.349 59.0755 72.9722 42.2741 72.9722C25.4728 72.9722 11.8496 59.3514 11.8496 42.5477C11.8496 25.744 25.4728 12.1232 42.2741 12.1232C59.0755 12.1232 72.6986 25.7463 72.6986 42.5477Z" fill="#FFCC4D"/>
<path d="M42.2735 55.3516C27.7118 55.3516 23.5507 49.9033 23.5507 52.4777C23.5507 55.0567 31.873 61.7922 42.2735 61.7922C52.674 61.7922 60.9962 55.0544 60.9962 52.4777C60.9962 49.9033 56.8374 55.3516 42.2735 55.3516ZM60.9962 34.7472C60.9962 38.1945 58.2018 40.9889 54.7545 40.9889C51.3095 40.9889 48.5152 38.1945 48.5152 34.7472C48.5152 31.2999 51.3095 28.5055 54.7545 28.5055C58.2018 28.5055 60.9962 31.2975 60.9962 34.7472ZM36.0317 34.7472C36.0317 38.1945 33.235 40.9889 29.79 40.9889C26.3451 40.9889 23.5483 38.1945 23.5483 34.7472C23.5483 31.2999 26.3474 28.5055 29.7924 28.5055C33.2374 28.5055 36.0317 31.2975 36.0317 34.7472Z" fill="#F4900C"/>
</g>
<defs>
<clipPath id="clip0_10_8934">
<rect width="84.2525" height="84.2525" fill="white" transform="translate(0.147461 0.421387)"/>
</clipPath>
</defs>
</svg>
